<svg width="368" height="327" viewBox="0 0 368 327" fill="none" xmlns="http://www.w3.org/2000/svg">
<path d="M81.7502 245.245H40.8751V286.12H81.7502V245.245ZM122.625 245.245H81.7502V286.12H122.625V245.245ZM81.7502 286.12H40.8751V326.995H81.7502V286.12ZM122.625 286.12H81.7502V326.995H122.625V286.12ZM81.7502 204.37H40.8751V245.245H81.7502V204.37ZM40.8751 245.245H0V286.12H40.8751V245.245ZM40.8751 286.12H0V326.995H40.8751V286.12ZM40.8751 204.37H0V245.245H40.8751V204.37ZM122.625 204.37H81.7502V245.245H122.625V204.37ZM245.251 286.12H204.376V326.995H245.251V286.12ZM286.126 286.12H245.251V326.995H286.126V286.12ZM327.001 286.12H286.126V326.995H327.001V286.12ZM245.251 245.245H204.376V286.12H245.251V245.245ZM286.126 245.245H245.251V286.12H286.126V245.245ZM327.001 245.245H286.126V286.12H327.001V245.245ZM245.251 204.37H204.376V245.245H245.251V204.37ZM286.126 204.37H245.251V245.245H286.126V204.37ZM327.001 204.37H286.126V245.245H327.001V204.37ZM367.876 286.12H327.001V326.995H367.876V286.12ZM367.876 245.245H327.001V286.12H367.876V245.245ZM367.876 204.37H327.001V245.245H367.876V204.37ZM163.506 163.495H122.631V204.37H163.506V163.495ZM204.381 163.495H163.506V204.37H204.381V163.495ZM163.506 122.619H122.631V163.495H163.506V122.619ZM204.381 122.619H163.506V163.495H204.381V122.619ZM163.506 81.7444H122.631V122.619H163.506V81.7444ZM204.381 81.7444H163.506V122.619H204.381V81.7444ZM245.257 40.8692H204.381V81.7444H245.257V40.8692ZM286.132 40.8692H245.257V81.7444H286.132V40.8692ZM245.245 0H204.37V40.8751H245.245V0ZM286.12 0H245.245V40.8751H286.12V0Z" fill="url(#paint0_linear_6098_1995)"/>
<defs>
<linearGradient id="paint0_linear_6098_1995" x1="61.3127" y1="388.308" x2="367.87" y2="81.7503" gradientUnits="userSpaceOnUse">
<stop offset="0.19" stop-color="#FF4C00"/>
<stop offset="0.55" stop-color="#AD85C8"/>
<stop offset="0.91" stop-color="#00E4F0"/>
</linearGradient>
</defs>
</svg>
