<svg width="375" height="268" viewBox="0 0 375 268" fill="none" xmlns="http://www.w3.org/2000/svg">
<path d="M187.501 80.4871H160.716V107.316H187.501V80.4871ZM214.287 80.4871H187.501V107.316H214.287V80.4871ZM294.643 80.4871H267.858V107.316H294.643V80.4871ZM321.429 80.4871H294.643V107.316H321.429V80.4871ZM348.214 80.4871H321.429V107.316H348.214V80.4871ZM187.499 53.658H160.713V80.4871H187.499V53.658ZM214.284 53.658H187.499V80.4871H214.284V53.658ZM241.07 26.829H214.284V53.658H241.07V26.829ZM267.855 26.829H241.07V53.658H267.855V26.829ZM241.072 0H214.287V26.829H241.072V0ZM267.858 0H241.072V26.829H267.858V0ZM187.501 214.635H160.716V241.464H187.501V214.635ZM214.287 214.635H187.501V241.464H214.287V214.635ZM187.501 241.464H160.716V268.293H187.501V241.464ZM214.287 241.464H187.501V268.293H214.287V241.464ZM187.501 187.806H160.716V214.635H187.501V187.806ZM214.287 187.806H187.501V214.635H214.287V187.806ZM294.643 53.658H267.858V80.4871H294.643V53.658ZM321.429 53.658H294.643V80.4871H321.429V53.658ZM348.214 53.658H321.429V80.4871H348.214V53.658ZM294.643 241.464H267.858V268.293H294.643V241.464ZM321.429 241.464H294.643V268.293H321.429V241.464ZM348.214 241.464H321.429V268.293H348.214V241.464ZM294.643 214.635H267.858V241.464H294.643V214.635ZM321.429 214.635H294.643V241.464H321.429V214.635ZM348.214 214.635H321.429V241.464H348.214V214.635ZM294.643 187.806H267.858V214.635H294.643V187.806ZM321.429 187.806H294.643V214.635H321.429V187.806ZM348.214 187.806H321.429V214.635H348.214V187.806ZM375 80.4871H348.214V107.316H375V80.4871ZM375 53.658H348.214V80.4871H375V53.658ZM375 241.464H348.214V268.293H375V241.464ZM375 214.635H348.214V241.464H375V214.635ZM375 187.806H348.214V214.635H375V187.806ZM53.5686 214.635H26.7831V241.464H53.5686V214.635ZM80.3541 214.635H53.5686V241.464H80.3541V214.635ZM53.5686 187.806H26.7831V214.635H53.5686V187.806ZM26.7831 214.635H0V241.464H26.7855V214.635H26.7831ZM53.5686 241.464H26.7831V268.293H53.5686V241.464ZM80.3541 241.464H53.5686V268.293H80.3541V241.464ZM26.7831 241.464H0V268.293H26.7855V241.464H26.7831ZM26.7831 187.806H0V214.635H26.7855V187.806H26.7831ZM80.3541 187.806H53.5686V214.635H80.3541V187.806ZM241.07 160.977H214.284V187.806H241.07V160.977ZM267.855 160.977H241.07V187.806H267.855V160.977ZM107.14 134.148H80.3541V160.977H107.14V134.148ZM133.925 134.148H107.14V160.977H133.925V134.148ZM241.07 134.148H214.284V160.977H241.07V134.148ZM267.855 134.148H241.07V160.977H267.855V134.148ZM107.14 107.319H80.3541V134.148H107.14V107.319ZM107.14 160.977H80.3541V187.806H107.14V160.977ZM133.925 160.977H107.14V187.806H133.925V160.977ZM133.925 107.319H107.14V134.148H133.925V107.319ZM160.711 134.148H133.925V160.977H160.711V134.148ZM160.711 160.977H133.925V187.806H160.711V160.977ZM160.711 107.319H133.925V134.148H160.711V107.319ZM241.067 107.319H214.282V134.148H241.067V107.319ZM267.853 107.319H241.067V134.148H267.853V107.319Z" fill="url(#paint0_linear_6108_233)"/>
<defs>
<linearGradient id="paint0_linear_6108_233" x1="73.6621" y1="342.074" x2="368.783" y2="47.4314" gradientUnits="userSpaceOnUse">
<stop offset="0.19" stop-color="#FF4C00"/>
<stop offset="0.55" stop-color="#AD85C8"/>
<stop offset="0.91" stop-color="#00E4F0"/>
</linearGradient>
</defs>
</svg>
