<svg width="23" height="23" viewBox="0 0 23 23" fill="none" xmlns="http://www.w3.org/2000/svg">
<path d="M17.1191 13.9775L23 19.853C22.9548 19.9434 22.8644 20.0337 22.774 20.1285C21.4993 21.4021 19.9488 22.7253 18.1271 22.9511C17.9011 22.9963 12.7932 23.7686 6.09418 17.0756C1.25749 12.2478 -0.383373 8.78845 0.0731746 4.87294C0.303708 3.04841 1.66883 1.50388 2.89835 0.225808C2.98875 0.135485 3.07916 0.0903232 3.17408 0L8.96003 5.78069L7.04796 7.69102C6.18458 8.55813 6.18458 9.96717 7.04796 10.8794L12.0609 15.8879C12.9288 16.755 14.3392 16.755 15.2523 15.8879L17.1191 13.9775Z" fill="white"/>
</svg>
