<svg width="185" height="42" viewBox="0 0 185 42" fill="none" xmlns="http://www.w3.org/2000/svg">
<path d="M171.367 28.8433H171.359C171.359 32.2665 174.144 35.0507 177.567 35.0507H185V40.8807H177.567C170.93 40.8807 165.533 35.4805 165.533 28.847H165.526V17.531H159.685V11.6898H165.526V0H171.367V11.6861H185V17.5272H171.367V28.8433ZM46.7368 23.3684V40.8956H52.5779V17.5272H46.7368V23.3684ZM0 23.3684V40.8956H5.84116V17.5272H0V23.3684ZM17.5272 11.6823H5.84116V17.5235H23.3684V11.6823H17.5272ZM40.8956 11.6823H29.2095V17.5235H46.7368V11.6823H40.8956ZM70.1051 11.6823H64.264V17.5235H81.7912V11.6823H70.1051ZM23.3684 23.3684V40.8956H29.2095V17.5272H23.3684V23.3684ZM122.683 25.364C122.683 25.3341 122.683 25.3042 122.683 25.2743V24.6278H122.664C122.279 17.4226 116.296 11.6748 108.994 11.6748V11.6898H105.16V17.5235H99.3184V11.6823H93.4773V40.8919H99.3184V23.3646H105.16V17.531H109.054V17.5235C113.351 17.5571 116.838 21.0588 116.838 25.364V29.2095H116.842V40.8956H122.683V29.2095H122.679V25.364H122.683ZM58.4191 23.3684V40.8956H64.2602V17.5272H58.4191V23.3684ZM158.545 25.364C158.545 26.5599 158.41 27.7222 158.16 28.8396H133.196C134.616 32.6814 138.316 35.4319 142.643 35.4319C145.087 35.4319 147.33 34.5574 149.075 33.1036H156.527C153.806 37.9657 148.604 41.2618 142.643 41.2618C133.876 41.2618 126.745 34.1314 126.745 25.364C126.745 16.5967 133.876 9.46619 142.643 9.46619C151.411 9.46619 158.541 16.5967 158.541 25.364H158.545ZM152.431 22.9984C151.362 18.5848 147.382 15.2961 142.647 15.2961C137.912 15.2961 133.928 18.5848 132.863 22.9984H152.434H152.431Z" fill="url(#paint0_linear_6097_1249)"/>
<defs>
<linearGradient id="paint0_linear_6097_1249" x1="0" y1="20.6328" x2="185" y2="20.6328" gradientUnits="userSpaceOnUse">
<stop offset="0.26" stop-color="#FF4C00"/>
<stop offset="0.3" stop-color="#F15724"/>
<stop offset="0.36" stop-color="#DE6657"/>
<stop offset="0.42" stop-color="#CE7382"/>
<stop offset="0.47" stop-color="#C27DA3"/>
<stop offset="0.52" stop-color="#BA85BA"/>
<stop offset="0.57" stop-color="#B489C9"/>
<stop offset="0.61" stop-color="#B38BCE"/>
<stop offset="0.64" stop-color="#A392D1"/>
<stop offset="0.71" stop-color="#79A7D8"/>
<stop offset="0.79" stop-color="#36C8E5"/>
<stop offset="0.85" stop-color="#00E4F0"/>
</linearGradient>
</defs>
</svg>
